<svg width="124" height="40" viewBox="0 0 124 40" fill="none" xmlns="http://www.w3.org/2000/svg">
<path fill-rule="evenodd" clip-rule="evenodd" d="M123.75 31.1111L123.75 31.1111L123.75 40C113.932 40 105.972 32.0406 105.972 22.2222L114.861 22.2222C114.861 27.1314 118.841 31.1111 123.75 31.1111ZM105.972 4.44444L105.972 22.2222L114.861 22.2222L114.861 4.44444L105.972 4.44444Z" fill="#DE492E"/>
<path fill-rule="evenodd" clip-rule="evenodd" d="M83.7501 8.8889H83.75V0C93.5684 0 101.528 7.95938 101.528 17.7778L92.639 17.7778C92.639 12.8686 88.6593 8.8889 83.7501 8.8889ZM101.528 17.7778H92.6388V35.5556H101.528V17.7778Z" fill="#585CA4"/>
<path d="M0 22.9873C0 21.1182 0.377401 19.4826 1.1322 18.0808C1.88701 16.6567 2.91931 15.5552 4.22911 14.7764C5.56112 13.9976 7.04852 13.6081 8.69133 13.6081C10.1121 13.6081 11.433 13.9419 12.654 14.6095C13.875 15.2548 14.8075 16.1115 15.4513 17.1796V7.5H18.5149V32.1996H15.4513V28.7617C14.8519 29.852 13.9638 30.7532 12.7872 31.4653C11.6106 32.1551 10.2342 32.5 8.65803 32.5C7.03742 32.5 5.56112 32.0995 4.22911 31.2984C2.91931 30.4973 1.88701 29.3736 1.1322 27.9272C0.377401 26.4809 0 24.8342 0 22.9873ZM15.4513 23.0207C15.4513 21.6411 15.1738 20.4395 14.6188 19.4159C14.0637 18.3923 13.3089 17.6135 12.3543 17.0794C11.4219 16.5231 10.3896 16.245 9.25743 16.245C8.12523 16.245 7.09292 16.512 6.16052 17.0461C5.22812 17.5801 4.48442 18.3589 3.92941 19.3825C3.37441 20.4061 3.09691 21.6077 3.09691 22.9873C3.09691 24.3892 3.37441 25.613 3.92941 26.6589C4.48442 27.6825 5.22812 28.4724 6.16052 29.0287C7.09292 29.5627 8.12523 29.8298 9.25743 29.8298C10.3896 29.8298 11.4219 29.5627 12.3543 29.0287C13.3089 28.4724 14.0637 27.6825 14.6188 26.6589C15.1738 25.613 15.4513 24.4003 15.4513 23.0207Z" fill="#BBBBBB"/>
<path d="M31.5945 32.5C29.8851 32.5 28.3311 32.1106 26.9325 31.3318C25.5561 30.553 24.4683 29.4515 23.6691 28.0274C22.8921 26.581 22.5036 24.9121 22.5036 23.0207C22.5036 21.1515 22.9032 19.5049 23.7024 18.0808C24.5238 16.6344 25.6338 15.5329 27.0324 14.7764C28.431 13.9976 29.9961 13.6081 31.7277 13.6081C33.4593 13.6081 35.0244 13.9976 36.423 14.7764C37.8216 15.5329 38.9205 16.6233 39.7197 18.0474C40.5412 19.4715 40.9519 21.1293 40.9519 23.0207C40.9519 24.9121 40.5301 26.581 39.6864 28.0274C38.865 29.4515 37.7439 30.553 36.3231 31.3318C34.9023 32.1106 33.3261 32.5 31.5945 32.5ZM31.5945 29.8298C32.6823 29.8298 33.7035 29.5739 34.6581 29.0621C35.6127 28.5503 36.3786 27.7826 36.9558 26.759C37.5552 25.7354 37.8549 24.4893 37.8549 23.0207C37.8549 21.5521 37.5663 20.306 36.9891 19.2824C36.4119 18.2588 35.6571 17.5022 34.7247 17.0127C33.7923 16.5009 32.7822 16.245 31.6944 16.245C30.5844 16.245 29.5632 16.5009 28.6308 17.0127C27.7206 17.5022 26.988 18.2588 26.433 19.2824C25.878 20.306 25.6005 21.5521 25.6005 23.0207C25.6005 24.5116 25.8669 25.7688 26.3997 26.7924C26.9547 27.816 27.6873 28.5837 28.5975 29.0955C29.5077 29.585 30.5067 29.8298 31.5945 29.8298Z" fill="#BBBBBB"/>
<path d="M43.804 23.0207C43.804 21.1293 44.1814 19.4826 44.9362 18.0808C45.691 16.6567 46.7344 15.5552 48.0664 14.7764C49.4206 13.9976 50.9635 13.6081 52.6951 13.6081C54.9373 13.6081 56.7799 14.1533 58.2229 15.2437C59.6881 16.334 60.6538 17.8471 61.12 19.783H57.8566C57.5458 18.6704 56.9353 17.7915 56.0251 17.1462C55.1371 16.5009 54.0271 16.1782 52.6951 16.1782C50.9635 16.1782 49.5649 16.779 48.4993 17.9806C47.4337 19.16 46.9009 20.84 46.9009 23.0207C46.9009 25.2236 47.4337 26.9259 48.4993 28.1275C49.5649 29.3291 50.9635 29.9299 52.6951 29.9299C54.0271 29.9299 55.1371 29.6184 56.0251 28.9953C56.9131 28.3723 57.5236 27.4822 57.8566 26.3251H61.12C60.6316 28.1943 59.6548 29.6963 58.1896 30.8311C56.7244 31.9437 54.8929 32.5 52.6951 32.5C50.9635 32.5 49.4206 32.1106 48.0664 31.3318C46.7344 30.553 45.691 29.4515 44.9362 28.0274C44.1814 26.6032 43.804 24.9344 43.804 23.0207Z" fill="#BBBBBB"/>
<path d="M71.6236 32.5C70.225 32.5 68.9707 32.2664 67.8607 31.7991C66.7507 31.3095 65.8738 30.642 65.23 29.7964C64.5862 28.9286 64.231 27.9384 64.1644 26.8258H67.2946C67.3834 27.7381 67.8052 28.4835 68.56 29.0621C69.337 29.6406 70.3471 29.9299 71.5903 29.9299C72.7447 29.9299 73.6549 29.674 74.3209 29.1622C74.9869 28.6504 75.3199 28.0051 75.3199 27.2263C75.3199 26.4252 74.9647 25.8356 74.2543 25.4573C73.5439 25.0567 72.445 24.6673 70.9576 24.289C69.6034 23.933 68.4934 23.577 67.6276 23.221C66.784 22.8427 66.0514 22.2975 65.4298 21.5854C64.8304 20.8511 64.5307 19.8943 64.5307 18.715C64.5307 17.7804 64.8082 16.9237 65.3632 16.1449C65.9182 15.366 66.7063 14.7541 67.7275 14.3091C68.7487 13.8418 69.9142 13.6081 71.224 13.6081C73.2442 13.6081 74.8759 14.1199 76.1191 15.1435C77.3623 16.1671 78.0283 17.569 78.1171 19.3491H75.0868C75.0202 18.3923 74.6317 17.6246 73.9213 17.0461C73.2331 16.4675 72.3007 16.1782 71.1241 16.1782C70.0363 16.1782 69.1705 16.4119 68.5267 16.8792C67.8829 17.3465 67.561 17.9584 67.561 18.715C67.561 19.3158 67.7497 19.8164 68.1271 20.217C68.5267 20.5952 69.0151 20.9068 69.5923 21.1515C70.1917 21.3741 71.0131 21.6299 72.0565 21.9192C73.3663 22.2753 74.4319 22.6313 75.2533 22.9873C76.0747 23.3211 76.774 23.8329 77.3512 24.5227C77.9506 25.2125 78.2614 26.1137 78.2836 27.2263C78.2836 28.2276 78.0061 29.1288 77.4511 29.9299C76.8961 30.731 76.108 31.3652 75.0868 31.8324C74.0878 32.2775 72.9334 32.5 71.6236 32.5Z" fill="#BBBBBB"/>
<path d="M83.627 22.8872C83.0498 22.8872 82.5614 22.6869 82.1618 22.2864C81.7622 21.8858 81.5624 21.3963 81.5624 20.8178C81.5624 20.2392 81.7622 19.7497 82.1618 19.3491C82.5614 18.9486 83.0498 18.7483 83.627 18.7483C84.182 18.7483 84.6482 18.9486 85.0256 19.3491C85.4252 19.7497 85.625 20.2392 85.625 20.8178C85.625 21.3963 85.4252 21.8858 85.0256 22.2864C84.6482 22.6869 84.182 22.8872 83.627 22.8872Z" fill="#BBBBBB"/>
</svg>
